<svg width="24" height="24" viewBox="0 0 24 24" fill="none" xmlns="http://www.w3.org/2000/svg">
<g clip-path="url(#clip0_1_6714)">
<path d="M11.9378 7.06934C8.9748 7.06934 6.51978 9.48203 6.51978 12.4873C6.51978 15.4926 8.93247 17.9053 11.9378 17.9053C14.9431 17.9053 17.3558 15.4503 17.3558 12.4873C17.3558 9.52436 14.9007 7.06934 11.9378 7.06934ZM11.9378 15.9582C10.033 15.9582 8.46686 14.3921 8.46686 12.4873C8.46686 10.5826 10.033 9.01642 11.9378 9.01642C13.8425 9.01642 15.4087 10.5826 15.4087 12.4873C15.4087 14.3921 13.8425 15.9582 11.9378 15.9582Z" fill="#E6E6E6"/>
<path d="M17.5665 8.16987C18.2444 8.16987 18.794 7.62029 18.794 6.94236C18.794 6.26442 18.2444 5.71484 17.5665 5.71484C16.8886 5.71484 16.339 6.26442 16.339 6.94236C16.339 7.62029 16.8886 8.16987 17.5665 8.16987Z" fill="#E6E6E6"/>
<path d="M20.7413 3.76768C19.6408 2.62482 18.0746 2.03223 16.2968 2.03223H7.57726C3.89472 2.03223 1.4397 4.48725 1.4397 8.16979V16.847C1.4397 18.6671 2.03229 20.2333 3.21748 21.3761C4.36033 22.4767 5.88414 23.0269 7.61959 23.0269H16.2545C18.0746 23.0269 19.5984 22.4343 20.699 21.3761C21.8418 20.2756 22.4344 18.7095 22.4344 16.8894V8.16979C22.4344 6.39201 21.8418 4.86821 20.7413 3.76768ZM20.572 16.8894C20.572 18.2015 20.1064 19.2597 19.3445 19.9793C18.5826 20.6989 17.5244 21.0798 16.2545 21.0798H7.61959C6.34975 21.0798 5.29155 20.6989 4.52964 19.9793C3.76774 19.2174 3.38679 18.1592 3.38679 16.847V8.16979C3.38679 6.89995 3.76774 5.84175 4.52964 5.07985C5.24922 4.36027 6.34975 3.97932 7.61959 3.97932H16.3392C17.609 3.97932 18.6672 4.36027 19.4291 5.12217C20.1487 5.88408 20.572 6.94228 20.572 8.16979V16.8894Z" fill="#E6E6E6"/>
</g>
<defs>
<clipPath id="clip0_1_6714">
<rect width="24" height="24" fill="white"/>
</clipPath>
</defs>
</svg>
